<?xml version="1.0" encoding="UTF-8"?>
<svg xmlns="http://www.w3.org/2000/svg" xmlns:xlink="http://www.w3.org/1999/xlink" version="1.1" width="512" height="512" x="0" y="0" viewBox="0 0 32 32" style="enable-background:new 0 0 512 512" xml:space="preserve" class="">
  <g>
    <g fill="#000" fill-rule="evenodd" clip-rule="evenodd">
      <path d="M24.761 15.264a.75.75 0 0 1 1.025.272l2.863 4.938a.75.75 0 0 1-1.298.752L24.49 16.29a.75.75 0 0 1 .272-1.025zM19.145 17.924a.75.75 0 0 1 .869.608l.887 5.038a.75.75 0 0 1-1.477.26l-.888-5.037a.75.75 0 0 1 .609-.87zM12.842 17.911a.75.75 0 0 1 .61.869l-.888 5.05a.75.75 0 0 1-1.478-.26l.888-5.05a.75.75 0 0 1 .868-.609zM7.225 15.263a.75.75 0 0 1 .275 1.024L4.637 21.25a.75.75 0 1 1-1.3-.75L6.2 15.538a.75.75 0 0 1 1.025-.275z" fill="#ffffff" opacity="1" data-original="#000000" class=""/>
      <path d="M3.529 12.529a.75.75 0 0 1 1.055.112C6.6 15.14 10.257 18.25 16 18.25s9.4-3.111 11.417-5.609a.75.75 0 0 1 1.166.943C26.402 16.286 22.358 19.75 16 19.75S5.6 16.286 3.417 13.584a.75.75 0 0 1 .112-1.055z" fill="#ffffff" opacity="1" data-original="#000000" class=""/>
    </g>
  </g>
</svg>
